<?xml version="1.0" standalone="no"?>
<!DOCTYPE svg PUBLIC "-//W3C//DTD SVG 20010904//EN"
 "http://www.w3.org/TR/2001/REC-SVG-20010904/DTD/svg10.dtd">
<svg version="1.0" xmlns="http://www.w3.org/2000/svg"
 width="512.000000pt" height="512.000000pt" viewBox="0 0 512.000000 512.000000"
 preserveAspectRatio="xMidYMid meet">
<metadata>
Created by potrace 1.15, written by Peter Selinger 2001-2017
</metadata>
<g transform="translate(0.000000,512.000000) scale(0.100000,-0.100000)"
fill="#000000" stroke="none">
<path d="M1633 4811 c-99 -34 -158 -92 -182 -177 -7 -24 -11 -154 -11 -339 0
-393 9 -431 112 -501 59 -40 147 -58 242 -51 85 6 146 30 201 78 61 54 78 104
83 247 l4 122 -135 0 -135 0 -4 -120 c-2 -95 -6 -123 -20 -136 -26 -26 -64
-11 -72 27 -3 17 -6 167 -6 333 0 328 3 348 53 354 39 5 47 -26 47 -169 l0
-119 136 0 136 0 -4 138 c-3 124 -6 143 -29 187 -46 91 -158 145 -299 145 -36
-1 -88 -9 -117 -19z"/>
<path d="M150 4284 l0 -526 258 4 c236 3 260 5 296 24 25 12 48 35 60 60 19
36 21 56 21 259 0 202 -2 223 -20 255 -33 57 -95 81 -225 88 l-110 5 0 88 0
89 130 0 130 0 0 90 0 90 -270 0 -270 0 0 -526z m355 -15 c6 -6 10 -69 10
-155 0 -133 -2 -147 -19 -160 -11 -8 -30 -14 -43 -14 l-23 0 0 176 0 177 32
-7 c18 -3 37 -11 43 -17z"/>
<path d="M890 4285 l0 -525 240 0 240 0 0 105 0 105 -100 0 -100 0 0 115 0
115 85 0 85 0 0 100 0 100 -85 0 -85 0 0 100 0 100 90 0 90 0 0 105 0 105
-230 0 -230 0 0 -525z"/>
<path d="M2180 4285 l0 -525 240 0 240 0 0 105 0 105 -100 0 -100 0 0 115 0
115 85 0 85 0 0 100 0 100 -85 0 -85 0 0 100 0 100 90 0 90 0 0 105 0 105
-230 0 -230 0 0 -525z"/>
<path d="M2847 4618 c-6 -202 -30 -392 -68 -548 -21 -87 -23 -90 -51 -90 l-28
0 0 -200 0 -200 95 0 95 0 0 90 0 90 220 0 220 0 0 -90 0 -90 95 0 95 0 0 200
0 200 -30 0 -30 0 0 415 0 415 -304 0 -303 0 -6 -192z m343 -328 l0 -310 -76
0 c-67 0 -75 2 -70 18 14 44 46 288 51 387 3 61 8 134 11 163 l5 52 40 0 39 0
0 -310z"/>
<path d="M3600 4285 l0 -525 140 0 140 0 0 220 c0 238 1 241 52 200 25 -19 25
-23 30 -182 4 -129 8 -171 22 -200 l18 -38 268 0 c299 0 280 -5 280 73 0 23 3
59 6 80 7 37 7 37 55 37 l47 0 6 -62 c3 -35 7 -76 8 -93 l3 -30 138 -3 c75 -1
137 1 137 5 1 4 -34 241 -77 526 l-78 517 -197 0 c-152 0 -198 -3 -198 -12 0
-22 -131 -1002 -136 -1018 -4 -12 -8 -11 -17 5 -7 12 -14 88 -17 195 -5 141
-9 181 -23 208 -20 36 -66 69 -109 79 -16 3 -28 9 -28 13 0 4 12 10 28 13 43
10 89 43 109 79 14 26 18 69 23 213 3 117 10 188 18 203 l13 22 -130 0 -129 0
-17 -42 c-12 -31 -19 -89 -24 -207 -6 -155 -8 -164 -30 -182 -50 -41 -51 -37
-51 206 l0 225 -140 0 -140 0 0 -525z m1029 105 c7 -74 15 -161 18 -192 l6
-58 -47 0 c-43 0 -46 1 -46 28 -1 52 43 373 50 365 4 -4 12 -69 19 -143z"/>
</g>
</svg>
