<?xml version="1.0" standalone="no"?>
<!DOCTYPE svg PUBLIC "-//W3C//DTD SVG 20010904//EN"
 "http://www.w3.org/TR/2001/REC-SVG-20010904/DTD/svg10.dtd">
<svg version="1.0" xmlns="http://www.w3.org/2000/svg"
 width="596.000000pt" height="380.000000pt" viewBox="0 0 596.000000 380.000000"
 preserveAspectRatio="xMidYMid meet">
<metadata>
Created by potrace 1.15, written by Peter Selinger 2001-2017
</metadata>
<g transform="translate(0.000000,380.000000) scale(0.100000,-0.100000)"
fill="#000000" stroke="none">
<path d="M0 1900 l0 -1900 2980 0 2980 0 0 1364 c0 1082 -3 1365 -12 1369 -10
4 -10 6 0 6 9 1 12 114 12 531 l0 530 -2980 0 -2980 0 0 -1900z m3084 1329
c21 -118 23 -154 7 -173 -17 -21 20 -61 89 -96 30 -15 147 -78 260 -140 113
-62 239 -131 280 -152 72 -39 148 -80 439 -240 74 -41 136 -79 138 -85 3 -7
-10 -13 -28 -15 -26 -2 -35 -9 -39 -28 -6 -25 -8 -25 -113 -28 -59 -1 -107 -4
-107 -5 0 -1 -3 -152 -7 -335 -6 -314 -5 -334 13 -368 l19 -36 -22 -18 c-23
-18 -23 -22 -23 -243 l0 -226 33 -3 c31 -3 32 -4 35 -55 2 -32 -1 -53 -7 -53
-6 0 -11 -15 -11 -34 l0 -33 -985 1 -985 1 0 27 c0 15 -6 31 -14 35 -9 5 -16
28 -17 58 l-3 50 37 3 37 3 0 233 c0 195 -2 236 -15 246 -8 7 -15 18 -15 25 0
7 7 18 15 25 13 11 15 62 15 351 l0 339 -92 0 c-117 0 -138 6 -135 34 2 16 -4
22 -25 24 -16 2 -28 7 -28 11 0 8 255 155 850 489 157 88 300 173 318 190 32
29 33 32 18 55 -15 21 -14 33 4 138 11 63 23 120 26 128 9 27 22 -4 38 -100z"/>
<path d="M2870 2893 c-171 -96 -399 -224 -710 -398 -135 -76 -247 -139 -249
-141 -2 -2 115 -4 260 -3 l264 0 235 250 c238 253 345 369 338 369 -1 0 -64
-35 -138 -77z"/>
<path d="M2931 2837 c-68 -72 -200 -212 -293 -309 l-170 -178 578 0 578 0 -35
38 c-19 20 -82 89 -139 152 -58 63 -130 142 -161 175 -31 33 -81 87 -110 120
-30 33 -70 76 -89 97 l-35 38 -124 -133z"/>
<path d="M3120 2944 c14 -16 56 -63 95 -104 38 -41 88 -96 110 -120 22 -25
107 -119 190 -208 l149 -162 290 0 c159 0 287 2 285 4 -2 1 -53 29 -114 61
-60 32 -123 66 -140 75 -16 9 -106 58 -200 109 -93 50 -179 97 -190 104 -11 6
-42 23 -70 38 -27 14 -120 65 -206 111 -85 47 -171 93 -190 103 l-34 18 25
-29z"/>
<path d="M1910 2306 c0 -11 184 -13 1143 -9 733 2 1143 7 1145 13 2 7 -398 10
-1142 10 -960 0 -1146 -2 -1146 -14z"/>
<path d="M2418 2262 l-267 -2 -5 -43 c-3 -23 -4 -175 -3 -337 2 -252 4 -295
17 -295 17 0 17 -1 26 308 l6 229 202 -4 201 -3 0 -274 0 -273 -231 1 c-197 2
-233 0 -244 -14 -11 -13 11 -15 218 -15 127 0 237 -3 246 -6 14 -5 16 -30 16
-174 0 -93 -4 -171 -8 -174 -5 -3 -98 -6 -208 -6 l-199 -2 -3 166 c-2 158 -3
166 -22 166 -18 0 -20 -7 -21 -87 0 -79 0 -356 1 -375 0 -5 7 -8 15 -8 11 0
15 12 15 49 l0 48 108 5 c59 3 154 5 212 4 l105 -1 3 -53 c3 -43 6 -53 18 -48
9 3 18 6 20 6 2 0 4 105 4 234 0 208 2 235 17 240 16 7 395 5 676 -2 l147 -3
0 -240 c0 -232 1 -239 20 -239 19 0 20 7 20 245 l0 244 234 -5 c175 -5 235 -3
241 5 4 7 4 15 1 18 -3 3 -106 8 -228 10 -123 2 -229 6 -236 8 -10 4 -12 64
-10 277 l3 273 210 0 210 0 -2 -268 c-1 -244 3 -294 24 -274 3 3 8 161 11 352
l5 345 -649 -2 c-357 -2 -769 -4 -916 -6z m1057 -422 l0 -275 -410 0 c-225 0
-415 4 -422 8 -15 11 -5 529 11 539 6 4 193 7 416 5 l405 -2 0 -275z"/>
<path d="M2660 1840 l0 -250 395 0 395 0 0 250 0 250 -395 0 -395 0 0 -250z"/>
<path d="M2216 2083 c-3 -4 -6 -114 -6 -245 l1 -238 180 0 179 0 0 245 0 245
-173 0 c-96 0 -177 -3 -181 -7z"/>
<path d="M3552 1838 l3 -253 180 0 180 0 0 250 0 250 -183 3 -182 2 2 -252z"/>
<path d="M3951 1450 c-2 -30 -4 -104 -5 -164 l-1 -108 -197 1 c-183 2 -230 -4
-197 -25 7 -4 89 -7 183 -6 94 1 179 -1 189 -4 13 -4 17 -16 17 -55 0 -27 4
-49 9 -49 13 0 17 133 11 315 -3 83 -7 125 -9 95z"/>
<path d="M3000 1413 c-41 -35 -76 -68 -78 -72 -3 -10 124 -135 142 -139 7 -2
46 28 85 65 l72 68 -73 71 -73 72 -75 -65z"/>
<path d="M2660 1339 l0 -130 23 18 c13 10 46 38 75 62 l53 45 -68 68 c-37 37
-71 68 -75 68 -5 0 -8 -59 -8 -131z"/>
<path d="M2663 1168 c3 -10 78 -13 333 -13 368 0 473 4 434 16 -14 4 -193 7
-398 8 -295 1 -373 -2 -369 -11z"/>
<path d="M2660 1085 l0 -45 395 0 395 0 0 45 0 45 -395 0 -395 0 0 -45z"/>
<path d="M2200 1080 l0 -40 185 0 185 0 0 40 0 40 -185 0 -185 0 0 -40z"/>
<path d="M3544 1106 c-3 -8 -4 -25 -2 -38 l3 -23 185 -3 186 -2 -4 40 -4 40
-179 0 c-146 0 -181 -3 -185 -14z"/>
<path d="M2060 990 l0 -30 225 0 225 0 0 30 0 30 -225 0 -225 0 0 -30z"/>
<path d="M2539 1018 c0 -2 -3 -15 -5 -30 l-5 -28 261 0 260 0 0 30 0 30 -255
0 c-140 0 -255 -1 -256 -2z"/>
<path d="M3097 1014 c-4 -4 -7 -18 -7 -30 l0 -23 238 -3 c130 -2 245 -1 255 1
13 3 17 11 15 30 l-3 26 -246 3 c-135 1 -248 -1 -252 -4z"/>
<path d="M3632 1011 c-8 -4 -12 -19 -10 -32 l3 -24 205 0 205 0 -3 25 c-2 14
-5 26 -6 27 -6 7 -384 11 -394 4z"/>
<path d="M2090 910 c0 -19 7 -20 210 -20 203 0 210 1 210 20 0 19 -7 20 -210
20 -203 0 -210 -1 -210 -20z"/>
<path d="M2534 914 c3 -9 6 -18 6 -20 0 -2 115 -4 255 -4 248 0 255 1 255 20
0 19 -7 20 -261 20 -234 0 -261 -2 -255 -16z"/>
<path d="M3090 910 c0 -19 7 -20 255 -20 248 0 255 1 255 20 0 19 -7 20 -255
20 -248 0 -255 -1 -255 -20z"/>
<path d="M3627 923 c-4 -3 -7 -12 -7 -20 0 -20 385 -19 393 1 3 8 3 17 0 20
-9 8 -378 8 -386 -1z"/>
</g>
</svg>
